<svg xmlns="http://www.w3.org/2000/svg" xmlns:xlink="http://www.w3.org/1999/xlink" viewBox="0 0 356.22 182.59"><defs><style>.cls-1{isolation:isolate;}.cls-11,.cls-2,.cls-5,.cls-8{mix-blend-mode:multiply;}.cls-2,.cls-5{opacity:0.45;}.cls-2{fill:url(#linear-gradient);}.cls-3{fill:url(#linear-gradient-2);}.cls-4{fill:url(#radial-gradient);}.cls-5{fill:url(#linear-gradient-3);}.cls-6{fill:url(#linear-gradient-4);}.cls-10,.cls-12,.cls-7{mix-blend-mode:screen;}.cls-7{opacity:0.6;fill:url(#linear-gradient-5);}.cls-8{fill:url(#linear-gradient-6);}.cls-9{fill:url(#linear-gradient-7);}.cls-10{fill:url(#linear-gradient-8);}.cls-11{fill:url(#linear-gradient-9);}.cls-12{fill:url(#linear-gradient-10);}.cls-13{fill:url(#linear-gradient-11);}.cls-14{font-size:36px;fill:#fff;font-family:Arial-BoldMT, Arial;font-weight:700;}</style><linearGradient id="linear-gradient" x1="2.28" y1="93.36" x2="356.22" y2="93.36" gradientUnits="userSpaceOnUse"><stop offset="0" stop-color="#ff352c"/><stop offset="1" stop-color="#8f0c06"/></linearGradient><linearGradient id="linear-gradient-2" x1="176.97" y1="34.88" x2="176.97" y2="246.69" xlink:href="#linear-gradient"/><radialGradient id="radial-gradient" cx="144.79" cy="128.3" r="319.61" gradientUnits="userSpaceOnUse"><stop offset="0" stop-color="#ffdbdb"/><stop offset="1" stop-color="#ffb8b8"/></radialGradient><linearGradient id="linear-gradient-3" x1="317.55" y1="207.87" x2="272.48" y2="71.66" xlink:href="#linear-gradient"/><linearGradient id="linear-gradient-4" x1="281.12" y1="-2.09" x2="281.12" y2="78.85" gradientUnits="userSpaceOnUse"><stop offset="0" stop-color="#dbdbdb"/><stop offset="1" stop-color="#6b6b6b"/></linearGradient><linearGradient id="linear-gradient-5" x1="281.06" y1="-1" x2="281.06" y2="37.91" xlink:href="#linear-gradient-4"/><linearGradient id="linear-gradient-6" x1="280.8" y1="57.32" x2="282.96" y2="98.21" xlink:href="#linear-gradient-4"/><linearGradient id="linear-gradient-7" x1="227.74" y1="119" x2="344.38" y2="119" gradientUnits="userSpaceOnUse"><stop offset="0" stop-color="#ffa54c"/><stop offset="0.69" stop-color="#fff498"/><stop offset="1" stop-color="#ffa54c"/></linearGradient><linearGradient id="linear-gradient-8" x1="227.74" y1="63.47" x2="344.38" y2="63.47" xlink:href="#linear-gradient-7"/><linearGradient id="linear-gradient-9" x1="278.73" y1="82.74" x2="284.25" y2="147.52" xlink:href="#linear-gradient-7"/><linearGradient id="linear-gradient-10" x1="276.3" y1="86.22" x2="281.81" y2="150.96" xlink:href="#linear-gradient-7"/><linearGradient id="linear-gradient-11" x1="278.11" y1="84.73" x2="283.63" y2="149.52" gradientUnits="userSpaceOnUse"><stop offset="0" stop-color="#270452"/><stop offset="1" stop-color="#460ba6"/></linearGradient></defs><g class="cls-1"><g id="OBJECTS"><rect class="cls-2" x="2.28" y="23.49" width="353.94" height="139.75" rx="6.44"/><rect class="cls-3" y="18.93" width="353.94" height="139.75" rx="6.44"/><path class="cls-4" d="M341.93,28.74a2.2,2.2,0,0,1,2.2,2.2V146.67a2.19,2.19,0,0,1-2.2,2.2H12a2.2,2.2,0,0,1-2.2-2.2V30.94a2.21,2.21,0,0,1,2.2-2.2Zm0-2.94H12a5.14,5.14,0,0,0-5.14,5.14V146.67A5.15,5.15,0,0,0,12,151.82H341.93a5.16,5.16,0,0,0,5.15-5.15V30.94a5.15,5.15,0,0,0-5.15-5.14Z"/><path class="cls-5" d="M328.47,62.49H320V39.1A35.61,35.61,0,0,0,284.43,3.54h-.53A35.6,35.6,0,0,0,248.34,39.1V62.49h-8.45A6.46,6.46,0,0,0,233.44,69v70.16a43.48,43.48,0,0,0,43.48,43.48h14.52a43.48,43.48,0,0,0,43.48-43.48V69A6.46,6.46,0,0,0,328.47,62.49Zm-65-23.39A20.4,20.4,0,0,1,283.9,18.72h.53A20.41,20.41,0,0,1,304.82,39.1V62.49H263.51Z"/><path class="cls-6" d="M317,76.59H245.3v-41A35.6,35.6,0,0,1,280.86,0h.53A35.6,35.6,0,0,1,317,35.56ZM260.47,61.42h41.31V35.56a20.42,20.42,0,0,0-20.39-20.39h-.53a20.42,20.42,0,0,0-20.39,20.39Z"/><path class="cls-7" d="M281.39,0h-.53A35.6,35.6,0,0,0,245.3,35.56l.13,1.27A35.6,35.6,0,0,1,281,1.27h.54a35.6,35.6,0,0,1,35.3,31.34A35.61,35.61,0,0,0,281.39,0Z"/><path class="cls-8" d="M301.78,50.2V61.42H260.47V35.56a20.4,20.4,0,0,1,19.58-20.35c-.27,0-.54,0-.81,0h-.53a20.41,20.41,0,0,0-20.39,20.39V50.2h-13V76.59H317V50.2Z"/><path class="cls-9" d="M237,58.95h88.33a6.58,6.58,0,0,1,6.58,6.58v69.2A44.32,44.32,0,0,1,287.56,179H274.72a44.32,44.32,0,0,1-44.32-44.32V65.53A6.58,6.58,0,0,1,237,58.95Z"/><path class="cls-10" d="M326,59H236.32a5.92,5.92,0,0,0-5.92,5.92V68a5.92,5.92,0,0,1,5.92-5.92H326A5.92,5.92,0,0,1,331.89,68V64.87A5.92,5.92,0,0,0,326,59Z"/><path class="cls-11" d="M295.17,100.6a14,14,0,0,0-28.06,0c0,4.25,2.83,8.3,5.81,10.87,0,0-5,29.89-4.1,29.89h24.64c.9,0-4-29.79-4-29.79C292.41,109,295.17,104.85,295.17,100.6Z"/><path class="cls-12" d="M281.14,89.8c-7.75,0-10.92,21.32-7.94,23.89l-5.8,29.12a1.5,1.5,0,0,0,1.42,1.78h24.64a1.5,1.5,0,0,0,1.43-1.78l-7.3-31.24C290.56,109,288.89,89.8,281.14,89.8Z"/><path class="cls-13" d="M295.17,102.54A14,14,0,1,0,272,113.15l-4.58,28.37a1.5,1.5,0,0,0,1.42,1.78h24.64a1.5,1.5,0,0,0,1.43-1.78l-4.59-28.37A14,14,0,0,0,295.17,102.54Z"/></g><g id="TEXTS"><text class="cls-14" transform="translate(27.56 75.18)">ACCESO</text><text class="cls-14" transform="translate(21.7 125.74)">DENEGADO</text></g></g></svg>