<svg xmlns="http://www.w3.org/2000/svg" xmlns:xlink="http://www.w3.org/1999/xlink" viewBox="0 0 500 500"><defs><style>.cls-1{isolation:isolate;}.cls-2{mix-blend-mode:overlay;}.cls-2,.cls-20{opacity:0.6;}.cls-3{fill:url(#radial-gradient);}.cls-4{fill:url(#radial-gradient-2);}.cls-5{fill:url(#linear-gradient);}.cls-6{fill:url(#linear-gradient-2);}.cls-7{fill:url(#linear-gradient-3);}.cls-8{fill:url(#linear-gradient-4);}.cls-9{fill:url(#linear-gradient-5);}.cls-10{fill:url(#linear-gradient-6);}.cls-11,.cls-12,.cls-13,.cls-20,.cls-23,.cls-25{mix-blend-mode:screen;}.cls-11{fill:url(#linear-gradient-7);}.cls-12{fill:url(#linear-gradient-8);}.cls-13{fill:url(#linear-gradient-9);}.cls-14{fill:url(#linear-gradient-10);}.cls-15,.cls-18,.cls-21,.cls-24,.cls-27,.cls-39{mix-blend-mode:multiply;}.cls-15,.cls-18,.cls-27,.cls-39{opacity:0.45;}.cls-15{fill:url(#linear-gradient-11);}.cls-16{fill:url(#linear-gradient-12);}.cls-17{fill:url(#radial-gradient-3);}.cls-18{fill:url(#linear-gradient-13);}.cls-19{fill:url(#linear-gradient-14);}.cls-20{fill:url(#linear-gradient-15);}.cls-21{fill:url(#linear-gradient-16);}.cls-22{fill:url(#linear-gradient-17);}.cls-23{fill:url(#linear-gradient-18);}.cls-24{fill:url(#linear-gradient-19);}.cls-25{fill:url(#linear-gradient-20);}.cls-26{fill:url(#linear-gradient-21);}.cls-27{fill:url(#linear-gradient-22);}.cls-28{fill:url(#linear-gradient-23);}.cls-29{fill:url(#radial-gradient-4);}.cls-30{fill:url(#linear-gradient-24);}.cls-31{fill:url(#linear-gradient-25);}.cls-32{fill:url(#linear-gradient-26);}.cls-33{fill:url(#linear-gradient-27);}.cls-34{fill:url(#linear-gradient-28);}.cls-35{fill:url(#linear-gradient-29);}.cls-36{fill:url(#linear-gradient-30);}.cls-37{fill:url(#linear-gradient-31);}.cls-38{fill:url(#linear-gradient-32);}.cls-39{fill:url(#linear-gradient-33);}.cls-40{fill:url(#linear-gradient-34);}.cls-41{fill:url(#radial-gradient-5);}.cls-42{fill:url(#radial-gradient-6);}.cls-43{font-size:36px;fill:#fff;font-family:Arial-BoldMT, Arial;font-weight:700;}</style><radialGradient id="radial-gradient" cx="221.44" cy="347.02" r="107.05" gradientUnits="userSpaceOnUse"><stop offset="0" stop-color="#ffdbdb"/><stop offset="1" stop-color="#ffb8b8"/></radialGradient><radialGradient id="radial-gradient-2" cx="498.39" cy="-3.89" r="555.16" xlink:href="#radial-gradient"/><linearGradient id="linear-gradient" x1="250" y1="319.03" x2="250" y2="682.85" gradientUnits="userSpaceOnUse"><stop offset="0" stop-color="#e3d1ee"/><stop offset="1" stop-color="#8b6ac4"/></linearGradient><linearGradient id="linear-gradient-2" x1="44.64" y1="115.86" x2="486.71" y2="115.86" gradientUnits="userSpaceOnUse"><stop offset="0" stop-color="#270452"/><stop offset="1" stop-color="#460ba6"/></linearGradient><linearGradient id="linear-gradient-3" x1="442" y1="104.08" x2="442" y2="186.5" gradientUnits="userSpaceOnUse"><stop offset="0" stop-color="#ff352c"/><stop offset="1" stop-color="#8f0c06"/></linearGradient><linearGradient id="linear-gradient-4" x1="425.42" y1="111.68" x2="425.42" y2="184.69" xlink:href="#linear-gradient"/><linearGradient id="linear-gradient-5" x1="408.84" y1="111.68" x2="408.84" y2="184.69" xlink:href="#linear-gradient"/><linearGradient id="linear-gradient-6" x1="152.24" y1="92.48" x2="152.24" y2="374.23" gradientUnits="userSpaceOnUse"><stop offset="0" stop-color="#2df3fe"/><stop offset="1" stop-color="#5d0ef6"/></linearGradient><linearGradient id="linear-gradient-7" x1="91.76" y1="123.83" x2="91.76" y2="339.02" xlink:href="#linear-gradient-6"/><linearGradient id="linear-gradient-8" x1="129.99" y1="123.83" x2="129.99" y2="339.02" xlink:href="#linear-gradient-6"/><linearGradient id="linear-gradient-9" x1="168.22" y1="123.83" x2="168.22" y2="339.02" xlink:href="#linear-gradient-6"/><linearGradient id="linear-gradient-10" x1="345.18" y1="94.94" x2="345.18" y2="443.09" xlink:href="#linear-gradient-6"/><linearGradient id="linear-gradient-11" x1="75.31" y1="263.21" x2="429.25" y2="263.21" xlink:href="#linear-gradient-3"/><linearGradient id="linear-gradient-12" x1="250" y1="204.72" x2="250" y2="416.53" xlink:href="#linear-gradient-3"/><radialGradient id="radial-gradient-3" cx="217.81" cy="298.14" r="319.61" xlink:href="#radial-gradient"/><linearGradient id="linear-gradient-13" x1="390.57" y1="377.72" x2="345.51" y2="241.51" xlink:href="#linear-gradient-3"/><linearGradient id="linear-gradient-14" x1="354.15" y1="167.76" x2="354.15" y2="248.7" gradientUnits="userSpaceOnUse"><stop offset="0" stop-color="#dbdbdb"/><stop offset="1" stop-color="#6b6b6b"/></linearGradient><linearGradient id="linear-gradient-15" x1="354.09" y1="168.84" x2="354.09" y2="207.75" xlink:href="#linear-gradient-14"/><linearGradient id="linear-gradient-16" x1="353.83" y1="227.16" x2="355.98" y2="268.05" xlink:href="#linear-gradient-14"/><linearGradient id="linear-gradient-17" x1="300.77" y1="288.84" x2="417.41" y2="288.84" gradientUnits="userSpaceOnUse"><stop offset="0" stop-color="#ffa54c"/><stop offset="0.69" stop-color="#fff498"/><stop offset="1" stop-color="#ffa54c"/></linearGradient><linearGradient id="linear-gradient-18" x1="300.77" y1="233.31" x2="417.41" y2="233.31" xlink:href="#linear-gradient-17"/><linearGradient id="linear-gradient-19" x1="351.76" y1="252.58" x2="357.28" y2="317.36" xlink:href="#linear-gradient-17"/><linearGradient id="linear-gradient-20" x1="349.33" y1="256.06" x2="354.84" y2="320.8" xlink:href="#linear-gradient-17"/><linearGradient id="linear-gradient-21" x1="351.14" y1="254.57" x2="356.66" y2="319.36" xlink:href="#linear-gradient-2"/><linearGradient id="linear-gradient-22" x1="81.8" y1="67.45" x2="128.52" y2="197.71" gradientTransform="translate(181.11 -10.14) rotate(76.51)" xlink:href="#linear-gradient-3"/><linearGradient id="linear-gradient-23" x1="80.28" y1="64.22" x2="127" y2="194.48" gradientTransform="translate(176.81 -11.13) rotate(76.51)" xlink:href="#linear-gradient-3"/><radialGradient id="radial-gradient-4" cx="154.01" cy="121.17" r="175.73" xlink:href="#radial-gradient"/><linearGradient id="linear-gradient-24" x1="346.1" y1="408.3" x2="346.1" y2="585" xlink:href="#linear-gradient"/><linearGradient id="linear-gradient-25" x1="317.66" y1="387.52" x2="317.66" y2="437.59" xlink:href="#linear-gradient-3"/><linearGradient id="linear-gradient-26" x1="351.07" y1="386.06" x2="427.6" y2="386.06" xlink:href="#linear-gradient-2"/><linearGradient id="linear-gradient-27" x1="351.05" y1="399.92" x2="414.75" y2="399.92" xlink:href="#linear-gradient-2"/><linearGradient id="linear-gradient-28" x1="351.07" y1="413.78" x2="427.6" y2="413.78" xlink:href="#linear-gradient-2"/><linearGradient id="linear-gradient-29" x1="351.03" y1="427.65" x2="405.37" y2="427.65" xlink:href="#linear-gradient-2"/><linearGradient id="linear-gradient-30" x1="59.32" y1="363.59" x2="141.86" y2="363.59" xlink:href="#linear-gradient-2"/><linearGradient id="linear-gradient-31" x1="101" y1="363.03" x2="138.59" y2="475.82" xlink:href="#linear-gradient-17"/><linearGradient id="linear-gradient-32" x1="104.78" y1="372.72" x2="117.18" y2="448.95" xlink:href="#linear-gradient-3"/><linearGradient id="linear-gradient-33" x1="298.22" y1="76.04" x2="332.47" y2="193.66" xlink:href="#linear-gradient-3"/><linearGradient id="linear-gradient-34" x1="296.04" y1="73.79" x2="330.29" y2="191.41" xlink:href="#linear-gradient-3"/><radialGradient id="radial-gradient-5" cx="310.27" cy="80.71" r="117.3" xlink:href="#radial-gradient"/><radialGradient id="radial-gradient-6" cx="313.82" cy="106.01" r="14.02" xlink:href="#radial-gradient"/></defs><g class="cls-1"><g id="OBJECTS"><g class="cls-2"><path class="cls-3" d="M273.75,439.09V422.83L252,401.11l-1,1.05,21.28,21.28v15.65a5.2,5.2,0,1,0,1.48,0Zm-.74,8.85a3.73,3.73,0,1,1,3.73-3.72A3.73,3.73,0,0,1,273,447.94ZM249.63,464.7V410.84L200.5,361.71V279.79l-15.13-15.13V245H183.9v20.25L199,280.39v81.93l49.13,49.13V464.7a4.47,4.47,0,1,0,1.47,0Zm22.6-79.29V257.76h-1.47V386l32.33,32.32v48.09h1.47v-48.7Zm-28,7.94-36-36V244.24h-1.47V357.93l36.89,36.89h12.76l31.9,31.9v6.41h1.47v-7L257,393.35Zm-22.16,57.86V395.26l-29-29v-73L178,278.13V243.51h-1.47v35.23l15.11,15.11v73l29,29v55.34a5.2,5.2,0,1,0,1.47,0Zm-.74,8.85a3.73,3.73,0,1,1,3.73-3.73A3.74,3.74,0,0,1,221.37,460.06Zm-23.78-38.54V392.3l-49.13-49.13V220.49H147V343.78l49.13,49.13v28.61a5.21,5.21,0,1,0,1.47,0Zm-.73,8.85a3.73,3.73,0,1,1,3.72-3.72A3.73,3.73,0,0,1,196.86,430.37Zm67.87-128v-.31L249.6,286.94v-27.6h-1.47v28.2l15.13,15.14.11,87.22v.3l32.33,32.33v44.28h1.47V421.92l-32.32-32.33Zm-87,101.73-3-3V391L139.37,355.7l-1,1,34.9,34.9v10.07l3.43,3.43a5.22,5.22,0,1,0,1.05-1Zm5.73,6.78a3.73,3.73,0,1,1-2.63-6.36,3.73,3.73,0,0,1,2.63,6.36Z"/></g><g class="cls-2"><path class="cls-4" d="M240.21,79.13A4.23,4.23,0,1,0,236,83.36,4.23,4.23,0,0,0,240.21,79.13Zm6.56-44.21a4.24,4.24,0,1,0-4.23-4.24A4.23,4.23,0,0,0,246.77,34.92Zm-1.89,71.73-8.17-8.17V83.36h-1.47V99.09l8.17,8.17V177l-17.08,17.07,1,1,17.51-17.5Zm6.78-45.56L237,46.38a4.84,4.84,0,0,0,1-2.94,5,5,0,1,0-5,5,4.84,4.84,0,0,0,2.94-1l14.27,14.27V180.84L232.9,198.13V307.45h1.47V198.74l17.29-17.29ZM233,46.94a3.5,3.5,0,1,1,3.5-3.5A3.5,3.5,0,0,1,233,46.94Zm14.54-6v-6H246v6.62l11.16,11.15V185L239.9,202.27V311.59h1.47V202.88l17.29-17.29V52.08Zm-46,81.69L180.7,101.79V81.2a5,5,0,1,0-1.47,0v21.2l20.83,20.82v20.66l-74,74,1,1,74.39-74.4ZM176.47,76.31A3.5,3.5,0,1,1,180,79.8,3.5,3.5,0,0,1,176.47,76.31Zm.14,35.69-6.36-6.36V95.28a4.24,4.24,0,1,0-1.47,0v11l6.36,6.36v45.08l-56,56.05,1,1,56.48-56.48ZM155.34,61.45,129,87.77v43.91h1.47V88.38L156,62.92h6.13a5,5,0,1,0,0-1.47ZM167,58.69a3.5,3.5,0,1,1-3.49,3.5A3.5,3.5,0,0,1,167,58.69ZM123.48,84.41l25.63-25.62V47.65l5.77-5.78a5,5,0,1,0-1-1L147.64,47V58.18L122,83.8V125L96.34,150.69l1,1,26.1-26.1Zm34.35-50a3.5,3.5,0,1,1-3.5,3.5A3.5,3.5,0,0,1,157.83,34.39Zm51,1.26a4.23,4.23,0,1,0-1.47,0V49l16.85,16.85V166.36l-35.74,35.73V310.65h1.47V202.7L225.65,167V65.23L208.8,48.38Zm9.82,33.63L198.71,49.36a5.06,5.06,0,1,0-1,1l19.48,19.49v92.49L181.63,197.9l1,1,36-35.95ZM194.71,49.93a3.5,3.5,0,1,1,3.49-3.49A3.5,3.5,0,0,1,194.71,49.93Z"/></g><rect class="cls-5" x="43.79" y="103.7" width="412.43" height="278.75" rx="12.34"/><path class="cls-6" d="M444.11,103.7H55.89a12.11,12.11,0,0,0-12.1,12.11V128H456.21v-12.2A12.11,12.11,0,0,0,444.11,103.7Z"/><path class="cls-7" d="M447.45,116.61a5.45,5.45,0,1,1-5.45-5.44A5.45,5.45,0,0,1,447.45,116.61Z"/><path class="cls-8" d="M430.86,116.61a5.44,5.44,0,1,1-5.44-5.44A5.44,5.44,0,0,1,430.86,116.61Z"/><path class="cls-9" d="M414.28,116.61a5.45,5.45,0,1,1-5.44-5.44A5.45,5.45,0,0,1,414.28,116.61Z"/><rect class="cls-10" x="63.63" y="144.36" width="177.23" height="161.81" rx="7.28"/><rect class="cls-11" x="79.9" y="163.45" width="23.74" height="123.58" rx="7.48"/><rect class="cls-12" x="118.13" y="163.45" width="23.74" height="123.58" rx="7.48"/><rect class="cls-13" x="156.36" y="163.45" width="23.74" height="123.58" rx="7.48"/><rect class="cls-14" x="250.46" y="159.04" width="189.45" height="199.95" rx="7.28"/><rect class="cls-15" x="75.31" y="193.33" width="353.94" height="139.75" rx="6.44"/><rect class="cls-16" x="73.03" y="188.77" width="353.94" height="139.75" rx="6.44"/><path class="cls-17" d="M415,198.58a2.21,2.21,0,0,1,2.2,2.2V316.52a2.2,2.2,0,0,1-2.2,2.19H85a2.2,2.2,0,0,1-2.2-2.19V200.78a2.21,2.21,0,0,1,2.2-2.2Zm0-2.94H85a5.14,5.14,0,0,0-5.14,5.14V316.52A5.14,5.14,0,0,0,85,321.66H415a5.14,5.14,0,0,0,5.14-5.14V200.78a5.14,5.14,0,0,0-5.14-5.14Z"/><path class="cls-18" d="M401.5,232.33H393V209a35.6,35.6,0,0,0-35.55-35.56h-.54A35.6,35.6,0,0,0,321.36,209v23.38h-8.44a6.46,6.46,0,0,0-6.46,6.46V309A43.48,43.48,0,0,0,350,352.43h14.52A43.48,43.48,0,0,0,408,309V238.79A6.46,6.46,0,0,0,401.5,232.33Zm-65-23.38a20.4,20.4,0,0,1,20.38-20.39h.54A20.4,20.4,0,0,1,377.84,209v23.38h-41.3Z"/><path class="cls-19" d="M390,246.44H318.33v-41a35.6,35.6,0,0,1,35.56-35.56h.53A35.6,35.6,0,0,1,390,205.4ZM333.5,231.26h41.31V205.4A20.42,20.42,0,0,0,354.42,185h-.53A20.41,20.41,0,0,0,333.5,205.4Z"/><path class="cls-20" d="M354.42,169.84h-.53a35.6,35.6,0,0,0-35.56,35.56l.12,1.27A35.6,35.6,0,0,1,354,171.11h.53a35.6,35.6,0,0,1,35.3,31.34A35.59,35.59,0,0,0,354.42,169.84Z"/><path class="cls-21" d="M374.81,220v11.22H333.5V205.4a20.39,20.39,0,0,1,19.58-20.34c-.28,0-.54-.05-.82-.05h-.53a20.41,20.41,0,0,0-20.38,20.39V220h-13v26.4H390V220Z"/><path class="cls-22" d="M310,228.79h88.33a6.58,6.58,0,0,1,6.58,6.58v69.2a44.32,44.32,0,0,1-44.32,44.32H347.75a44.32,44.32,0,0,1-44.32-44.32v-69.2A6.58,6.58,0,0,1,310,228.79Z"/><path class="cls-23" d="M399,228.79H309.34a5.92,5.92,0,0,0-5.91,5.92v3.13a5.92,5.92,0,0,1,5.91-5.92H399a5.92,5.92,0,0,1,5.91,5.92v-3.13A5.92,5.92,0,0,0,399,228.79Z"/><path class="cls-24" d="M368.2,270.44a14,14,0,1,0-28.06,0c0,4.25,2.83,8.3,5.81,10.88,0,0-5,29.88-4.1,29.88h24.64c.9,0-4-29.79-4-29.79C365.44,278.84,368.2,274.69,368.2,270.44Z"/><path class="cls-25" d="M354.17,259.64c-7.75,0-10.92,21.32-7.95,23.89l-5.8,29.12a1.51,1.51,0,0,0,1.43,1.78h24.64a1.5,1.5,0,0,0,1.43-1.78l-7.31-31.24C363.59,278.84,361.92,259.64,354.17,259.64Z"/><path class="cls-26" d="M368.2,272.38A14,14,0,1,0,345,283l-4.59,28.37a1.51,1.51,0,0,0,1.43,1.78h24.64a1.5,1.5,0,0,0,1.43-1.78L363.33,283A14,14,0,0,0,368.2,272.38Z"/><circle class="cls-27" cx="96.98" cy="109.78" r="43.8" transform="translate(-32.39 178.48) rotate(-76.51)"/><circle class="cls-28" cx="95.47" cy="106.55" r="43.8" transform="translate(-30.41 174.53) rotate(-76.51)"/><polygon class="cls-29" points="115.34 96.55 105.46 86.68 95.47 96.67 85.47 86.68 75.59 96.55 85.59 106.55 75.59 116.55 85.47 126.42 95.47 116.43 105.46 126.42 115.34 116.55 105.34 106.55 115.34 96.55"/><path class="cls-30" d="M281.36,372.07v17.86l-23.87-12.51a.75.75,0,0,0-.94,1.12l24.81,32.81v31.11a5.32,5.32,0,0,0,5.32,5.31H430.49a5.31,5.31,0,0,0,5.31-5.31V372.07a5.31,5.31,0,0,0-5.31-5.31H286.68A5.32,5.32,0,0,0,281.36,372.07Z"/><path class="cls-31" d="M307.12,418.34V427a14.5,14.5,0,0,0,2.84.61v-3a1.33,1.33,0,0,1,1.3-1.37h.7a1.33,1.33,0,0,1,1.29,1.37v3.2c1.05,0,2,0,2.77,0v-3.17a1.33,1.33,0,0,1,1.29-1.37h.7a1.33,1.33,0,0,1,1.3,1.37v3.17c.75,0,1.72.05,2.76,0v-3.2a1.33,1.33,0,0,1,1.3-1.37h.7a1.33,1.33,0,0,1,1.29,1.37v3a14.34,14.34,0,0,0,2.84-.61v-8.67s10.46-2.22,8-16.4c-1.26-7.34-9.91-12.05-18.57-12.05s-17.3,4.71-18.56,12.05C296.67,416.12,307.12,418.34,307.12,418.34Zm13.73-17.52c1-2.14,7-1.74,9.67,1s1.16,7,1.16,7c-1.16,2.34-2.71,2.44-6.57.2S319.89,403,320.85,400.82Zm2,15.43s-.12,4.51-5.17,1.61c-5.05,2.9-5.17-1.61-5.17-1.61-.73-2.52,5.17-8.73,5.17-8.73S323.56,413.73,322.83,416.25Zm-18-14.42c2.71-2.75,8.7-3.15,9.67-1s-.39,6-4.25,8.25-5.42,2.14-6.58-.2C303.64,408.87,302.1,404.59,304.8,401.83Z"/><path class="cls-32" d="M418.52,389.86h-63.8a3.8,3.8,0,0,1-3.8-3.8h0a3.8,3.8,0,0,1,3.8-3.8h63.8a3.8,3.8,0,0,1,3.8,3.8h0A3.8,3.8,0,0,1,418.52,389.86Z"/><path class="cls-33" d="M406.56,403.72H354.72a3.8,3.8,0,0,1-3.8-3.8h0a3.8,3.8,0,0,1,3.8-3.8h51.84a3.8,3.8,0,0,1,3.8,3.8h0A3.8,3.8,0,0,1,406.56,403.72Z"/><path class="cls-34" d="M418.52,417.58h-63.8a3.8,3.8,0,0,1-3.8-3.8h0a3.8,3.8,0,0,1,3.8-3.79h63.8a3.8,3.8,0,0,1,3.8,3.79h0A3.8,3.8,0,0,1,418.52,417.58Z"/><path class="cls-35" d="M397.82,431.44h-43.1a3.8,3.8,0,0,1-3.8-3.79h0a3.8,3.8,0,0,1,3.8-3.8h43.1a3.8,3.8,0,0,1,3.8,3.8h0A3.8,3.8,0,0,1,397.82,431.44Z"/><rect class="cls-36" x="59.32" y="350.81" width="82.54" height="25.57" rx="5.55"/><path class="cls-37" d="M136.64,347.92l-10.32,10.32a4.87,4.87,0,0,1-3.43,1.43H58.61a4.86,4.86,0,0,0-4.86,4.86v64a4.86,4.86,0,0,0,4.86,4.86h102.7a4.86,4.86,0,0,0,4.86-4.86V351.36a4.87,4.87,0,0,0-4.86-4.86H140.08A4.87,4.87,0,0,0,136.64,347.92Z"/><path class="cls-38" d="M133.93,394.89H122.55c0-1.95,0-3.65-.14-5.07a15.78,15.78,0,0,0,8.08-4,10.75,10.75,0,0,0,3-8,2.11,2.11,0,0,0-4.22.07,6.62,6.62,0,0,1-1.82,5,11.34,11.34,0,0,1-5.57,2.79c-.08-.43-.13-.67-.13-.67s-.31-3.57-6.6-5.08c-.26-2.15-1.41-6.21-6.46-6.21s-6.2,4.06-6.46,6.21c-6.29,1.51-6.6,5.08-6.6,5.08s0,.24-.13.67A11.3,11.3,0,0,1,90,382.83a6.62,6.62,0,0,1-1.82-5,2.11,2.11,0,0,0-4.22-.07,10.75,10.75,0,0,0,3,8,15.78,15.78,0,0,0,8.08,4c-.1,1.42-.17,3.12-.14,5.07H83.53a2.11,2.11,0,1,0,0,4.22H95.09c.12,1.55.29,3.2.54,4.95A16.21,16.21,0,0,0,87,408.2a10.77,10.77,0,0,0-3,8A2.11,2.11,0,0,0,86,418.28h0a2.1,2.1,0,0,0,2.08-2.14,6.62,6.62,0,0,1,1.82-5c1.86-1.9,4.73-2.69,6.73-3,3.31,7.84,12,7.11,12,7.11s8.72.73,12-7.11c2,.32,4.87,1.11,6.73,3a6.62,6.62,0,0,1,1.82,5,2.1,2.1,0,0,0,2.07,2.14h0a2.11,2.11,0,0,0,2.11-2.07,10.77,10.77,0,0,0-3-8,16.21,16.21,0,0,0-8.66-4.14c.25-1.75.42-3.4.53-4.95h11.57a2.11,2.11,0,0,0,0-4.22Z"/><path class="cls-39" d="M310.76,58.33,267,134.17a6.1,6.1,0,0,0,5.28,9.15h87.58a6.1,6.1,0,0,0,5.28-9.15L321.32,58.33A6.09,6.09,0,0,0,310.76,58.33Z"/><path class="cls-40" d="M308.57,56.08l-43.79,75.85a6.09,6.09,0,0,0,5.28,9.14h87.58a6.09,6.09,0,0,0,5.28-9.14L319.13,56.08A6.1,6.1,0,0,0,308.57,56.08Z"/><path class="cls-41" d="M313.85,65.76a.32.32,0,0,1,.3.18l37.75,65.37a.36.36,0,0,1,0,.35.34.34,0,0,1-.31.17H276.11a.33.33,0,0,1-.3-.17.32.32,0,0,1,0-.35l37.74-65.37a.33.33,0,0,1,.3-.18Zm0-2.05a2.38,2.38,0,0,0-2.08,1.2L274,130.28a2.4,2.4,0,0,0,2.08,3.6h75.48a2.4,2.4,0,0,0,2.08-3.6L315.93,64.91a2.38,2.38,0,0,0-2.08-1.2Z"/><path class="cls-42" d="M309.29,120.91a4.37,4.37,0,0,1,1.16-3.29,4.71,4.71,0,0,1,3.4-1.12,4.59,4.59,0,0,1,3.33,1.14,5,5,0,0,1,0,6.5,4.55,4.55,0,0,1-3.32,1.18,4.66,4.66,0,0,1-3.37-1.16A4.29,4.29,0,0,1,309.29,120.91ZM317,112h-6.33l-1.32-25.33h9Z"/></g><g id="TEXTS"><text class="cls-43" transform="translate(100.59 245.02)">ACCESO</text><text class="cls-43" transform="translate(94.72 295.59)">DENEGADO</text></g></g></svg>